<svg xmlns="http://www.w3.org/2000/svg" viewBox="0 0 878.79 166.48"><defs><style>.cls-1{fill:#ffed35;}.cls-2{fill:#1e3479;}</style></defs><title>RF_horizontal_COLOR_POS_rgb_2018</title><g id="SYMBOL_f채rdigst채lld" data-name="SYMBOL f채rdigst채lld"><path class="cls-1" d="M232.21,271.11a42.94,42.94,0,0,0-2.84-6c-4.56-7.89-11.3-13.45-16.17-16.73L231.73,279A56.15,56.15,0,0,1,232.21,271.11Z" transform="translate(-95.82 -240.94)"/><path class="cls-1" d="M214.24,385a64.72,64.72,0,0,1-12.5,4.79l36.81.78C233.25,388,225.06,385,216,385,215.41,385,214.83,385,214.24,385Z" transform="translate(-95.82 -240.94)"/><path class="cls-1" d="M125,352.8c-.54-.51-1.09-1-1.66-1.49-6.94-5.82-15.18-8.74-20.9-10.17l29.28,23.53A65,65,0,0,1,125,352.8Z" transform="translate(-95.82 -240.94)"/><path class="cls-1" d="M137.43,371.59c-.67-.28-1.33-.56-2-.81A48.92,48.92,0,0,0,118.66,368a60,60,0,0,0-6.38.34l35.36,12A65.94,65.94,0,0,1,137.43,371.59Z" transform="translate(-95.82 -240.94)"/><path class="cls-1" d="M155.41,385c-.67,0-1.33-.07-2-.07-9.07,0-17.26,3.06-22.55,5.64l37-.79A64.67,64.67,0,0,1,155.41,385Z" transform="translate(-95.82 -240.94)"/><path class="cls-1" d="M184.82,392c-.79,0-1.58,0-2.36-.06a65.27,65.27,0,0,1-7.81,3.95,53.89,53.89,0,0,0,10.17,6.73,54.74,54.74,0,0,0,10.1-6.66,62.77,62.77,0,0,1-8-4C186.24,392,185.53,392,184.82,392Z" transform="translate(-95.82 -240.94)"/><path class="cls-1" d="M213.16,248.44c.42,5.87,1.86,14.49,6.39,22.34.3.51.61,1,.92,1.49a65.27,65.27,0,0,1,10.42,8.45Z" transform="translate(-95.82 -240.94)"/><path class="cls-1" d="M237,287.73a64.42,64.42,0,0,1,6.91,11.52l-5.62-36.39c-1.62,5.66-3.21,14.26-1.64,23.18C236.73,286.62,236.86,287.17,237,287.73Z" transform="translate(-95.82 -240.94)"/><path class="cls-1" d="M248.43,290.66a44.21,44.21,0,0,0-.63-6.59c-1.58-8.92-6-16.45-9.47-21.22l6.95,35A55.2,55.2,0,0,1,248.43,290.66Z" transform="translate(-95.82 -240.94)"/><path class="cls-1" d="M247.22,307.92a65.1,65.1,0,0,1,2.53,13.25L256.93,285c-3.46,4.77-7.9,12.3-9.47,21.23C247.36,306.79,247.29,307.36,247.22,307.92Z" transform="translate(-95.82 -240.94)"/><path class="cls-1" d="M257,314.61a44.38,44.38,0,0,0,1.68-6.42c1.58-9,0-17.56-1.63-23.21l-5.46,35.33A56,56,0,0,1,257,314.61Z" transform="translate(-95.82 -240.94)"/><path class="cls-1" d="M250.73,328.89c-.29.51-.55,1-.82,1.53a64.27,64.27,0,0,1-2.1,13.25l19.08-31.48C262,315.48,255.27,321,250.73,328.89Z" transform="translate(-95.82 -240.94)"/><path class="cls-1" d="M256.78,340a42.49,42.49,0,0,0,3.77-5.46c4.56-7.9,6-16.51,6.41-22.37l-17.21,31.34A55.46,55.46,0,0,1,256.78,340Z" transform="translate(-95.82 -240.94)"/><path class="cls-1" d="M247.93,363.84a44.69,44.69,0,0,0,5.42-3.84c6.93-5.82,11.24-13.43,13.64-18.81l-26.88,23.55A57,57,0,0,1,247.93,363.84Z" transform="translate(-95.82 -240.94)"/><path class="cls-1" d="M244.79,352.45a65.18,65.18,0,0,1-6.58,11.78L267,341.14c-5.71,1.43-13.95,4.35-20.89,10.17C245.62,351.68,245.21,352.07,244.79,352.45Z" transform="translate(-95.82 -240.94)"/><path class="cls-1" d="M231.5,383.2a42.91,42.91,0,0,0,6.37-1.76c8.52-3.1,15.16-8.77,19.26-13l-33.3,12.93A57.43,57.43,0,0,1,231.5,383.2Z" transform="translate(-95.82 -240.94)"/><path class="cls-1" d="M234,370.78c-.56.21-1.09.44-1.64.66a65.49,65.49,0,0,1-10.15,8.8l34.93-11.88a60.26,60.26,0,0,0-6.38-.34A49,49,0,0,0,234,370.78Z" transform="translate(-95.82 -240.94)"/><path class="cls-1" d="M216,396.29c9.12,0,17.3-3.06,22.57-5.64l-43.14.92A51.65,51.65,0,0,0,216,396.29Z" transform="translate(-95.82 -240.94)"/><path class="cls-1" d="M148.78,272.52c.36-.57.73-1.14,1.07-1.74,4.53-7.85,6-16.47,6.39-22.34l-18,32.84A65.42,65.42,0,0,1,148.78,272.52Z" transform="translate(-95.82 -240.94)"/><path class="cls-1" d="M156.2,248.38c-4.87,3.28-11.61,8.84-16.17,16.73a44.1,44.1,0,0,0-2.84,6,56.15,56.15,0,0,1,.48,7.84Z" transform="translate(-95.82 -240.94)"/><path class="cls-1" d="M132.33,288.18c.16-.7.32-1.41.44-2.14,1.58-8.92,0-17.52-1.63-23.18L125.4,300A64.82,64.82,0,0,1,132.33,288.18Z" transform="translate(-95.82 -240.94)"/><path class="cls-1" d="M131.07,262.85c-3.46,4.77-7.89,12.3-9.46,21.22a42.92,42.92,0,0,0-.63,6.59,55.19,55.19,0,0,1,3.14,7.23Z" transform="translate(-95.82 -240.94)"/><path class="cls-1" d="M122.27,308.46c-.09-.74-.19-1.49-.32-2.23-1.58-8.93-6-16.46-9.47-21.23l7.34,37A64.54,64.54,0,0,1,122.27,308.46Z" transform="translate(-95.82 -240.94)"/><path class="cls-1" d="M112.45,314.61a56,56,0,0,1,5.42,5.7L112.41,285c-1.62,5.65-3.21,14.23-1.63,23.21A43.11,43.11,0,0,0,112.45,314.61Z" transform="translate(-95.82 -240.94)"/><path class="cls-1" d="M119.76,330.93c-.34-.68-.7-1.36-1.09-2-4.53-7.85-11.27-13.41-16.15-16.7L122,344.38A64.86,64.86,0,0,1,119.76,330.93Z" transform="translate(-95.82 -240.94)"/><path class="cls-1" d="M112.62,340a55.56,55.56,0,0,1,7,3.51l-17.21-31.34c.4,5.86,1.84,14.47,6.4,22.37A43.53,43.53,0,0,0,112.62,340Z" transform="translate(-95.82 -240.94)"/><path class="cls-1" d="M121.48,363.84a56.9,56.9,0,0,1,7.81.9l-26.88-23.55c2.4,5.38,6.71,13,13.65,18.81A43.19,43.19,0,0,0,121.48,363.84Z" transform="translate(-95.82 -240.94)"/><path class="cls-1" d="M137.9,383.2a57.43,57.43,0,0,1,7.67-1.84l-33.29-12.93c4.09,4.24,10.74,9.91,19.25,13A43.24,43.24,0,0,0,137.9,383.2Z" transform="translate(-95.82 -240.94)"/><path class="cls-1" d="M153.41,396.29A51.69,51.69,0,0,0,174,391.57l-43.15-.92C136.11,393.23,144.29,396.29,153.41,396.29Z" transform="translate(-95.82 -240.94)"/><path class="cls-2" d="M256.08,363.26c13.19-11.07,17.51-27.65,17.51-27.65a56.9,56.9,0,0,0-9.91,2c.19-.3.38-.6.56-.91,8.61-14.92,7-32,7-32a56.17,56.17,0,0,0-8.62,5.26c.07-.35.14-.69.2-1.05,3-17-4.35-32.43-4.35-32.43a57,57,0,0,0-6.31,7.89c-.05-.35-.1-.7-.17-1.05-3-17-15.18-29-15.18-29a56.17,56.17,0,0,0-3.23,9.57c-.17-.31-.34-.62-.52-.93-8.61-14.92-24.18-22.05-24.18-22.05a61.66,61.66,0,0,0,4.68,27.38,65.2,65.2,0,0,0-57.76.15,61.5,61.5,0,0,0,4.74-27.53S145,248.07,136.35,263c-.18.31-.35.62-.52.93a56.77,56.77,0,0,0-3.22-9.57s-12.2,12-15.19,29c-.06.35-.11.7-.17,1.05a56.6,56.6,0,0,0-6.3-7.89s-7.35,15.47-4.36,32.43c.06.36.14.7.21,1.05a56.5,56.5,0,0,0-8.63-5.26s-1.61,17,7,32c.18.31.37.61.55.91a56.9,56.9,0,0,0-9.9-2s4.32,16.58,17.51,27.65c.27.23.55.45.83.67a56.37,56.37,0,0,0-10,1.52s9.73,14.09,25.91,20c.34.13.68.23,1,.34a57,57,0,0,0-8.88,4.85s14,9.92,31.19,9.92a52.87,52.87,0,0,0,16.71-2.89,60.47,60.47,0,0,0,12.79,8.81l1.91,1,1.91-1a60.41,60.41,0,0,0,12.73-8.75A52.82,52.82,0,0,0,216,400.54c17.22,0,31.18-9.92,31.18-9.92a57,57,0,0,0-8.88-4.85c.34-.11.68-.21,1-.34,16.18-5.89,25.9-20,25.9-20a56.13,56.13,0,0,0-10-1.52ZM253.35,360a44.69,44.69,0,0,1-5.42,3.84,57,57,0,0,0-7.82.9L267,341.19C264.59,346.57,260.28,354.18,253.35,360ZM267,341.14l-28.74,23.09a65.18,65.18,0,0,0,6.58-11.78c.42-.38.83-.77,1.27-1.14C253,345.49,261.24,342.57,267,341.14Zm-6.4-6.58a42.49,42.49,0,0,1-3.77,5.46,55.46,55.46,0,0,0-7,3.51L267,312.19C266.55,318.05,265.11,326.66,260.55,334.56Zm6.34-22.37-19.08,31.48a64.27,64.27,0,0,0,2.1-13.25c.27-.51.53-1,.82-1.53C255.27,321,262,315.48,266.89,312.19Zm-8.26-4a44.38,44.38,0,0,1-1.68,6.42,56,56,0,0,0-5.41,5.7L257,285C258.62,290.63,260.21,299.21,258.63,308.19ZM256.93,285l-7.18,36.17a65.1,65.1,0,0,0-2.53-13.25c.07-.56.14-1.13.24-1.69C249,297.3,253.47,289.77,256.93,285Zm-9.13-.93a44.21,44.21,0,0,1,.63,6.59,55.2,55.2,0,0,0-3.15,7.23l-6.95-35C241.79,267.62,246.22,275.15,247.8,284.07Zm-9.53-21.21,5.62,36.39A64.42,64.42,0,0,0,237,287.73c-.12-.56-.25-1.11-.35-1.69C235.06,277.12,236.65,268.52,238.27,262.86Zm-8.9,2.25a42.94,42.94,0,0,1,2.84,6,56.15,56.15,0,0,0-.48,7.84L213.2,248.38C218.07,251.66,224.81,257.22,229.37,265.11Zm-9.82,5.67c-4.53-7.85-6-16.47-6.39-22.34l17.73,32.28a65.27,65.27,0,0,0-10.42-8.45C220.16,271.78,219.85,271.29,219.55,270.78Zm-69.7,0c-.34.6-.71,1.17-1.07,1.74a65.42,65.42,0,0,0-10.58,8.76l18-32.84C155.83,254.31,154.38,262.93,149.85,270.78ZM140,265.11c4.56-7.89,11.3-13.45,16.17-16.73L137.67,279a56.15,56.15,0,0,0-.48-7.84A44.1,44.1,0,0,1,140,265.11ZM132.77,286c-.12.73-.28,1.44-.44,2.14A64.82,64.82,0,0,0,125.4,300l5.74-37.17C132.76,268.52,134.35,277.12,132.77,286Zm-11.16-2c1.57-8.92,6-16.45,9.46-21.22l-6.95,35a55.19,55.19,0,0,0-3.14-7.23A42.92,42.92,0,0,1,121.61,284.07Zm.34,22.16c.13.74.23,1.49.32,2.23A64.54,64.54,0,0,0,119.82,322l-7.34-37C115.94,289.77,120.37,297.3,122,306.23ZM112.41,285l5.46,35.33a56,56,0,0,0-5.42-5.7,43.11,43.11,0,0,1-1.67-6.42C109.2,299.21,110.79,290.63,112.41,285Zm6.26,43.91c.39.68.75,1.36,1.09,2A64.86,64.86,0,0,0,122,344.38l-19.51-32.19C107.4,315.48,114.14,321,118.67,328.89Zm-16.22-16.7,17.21,31.34a55.56,55.56,0,0,0-7-3.51,43.53,43.53,0,0,1-3.77-5.46C104.29,326.66,102.85,318.05,102.45,312.19Zm20.9,39.12c.57.49,1.12,1,1.66,1.49a65,65,0,0,0,6.72,11.87l-29.28-23.53C108.17,342.57,116.41,345.49,123.35,351.31Zm-20.94-10.12,26.88,23.55a56.9,56.9,0,0,0-7.81-.9,43.19,43.19,0,0,1-5.42-3.84C109.12,354.18,104.81,346.57,102.41,341.19ZM118.66,368a48.92,48.92,0,0,1,16.75,2.76c.69.25,1.35.53,2,.81a65.94,65.94,0,0,0,10.21,8.8l-35.36-12A60,60,0,0,1,118.66,368Zm-6.38.41,33.29,12.93a57.43,57.43,0,0,0-7.67,1.84,43.24,43.24,0,0,1-6.37-1.76C123,378.34,116.37,372.67,112.28,368.43ZM153.41,385c.67,0,1.33,0,2,.07a64.67,64.67,0,0,0,12.47,4.78l-37,.79C136.15,388,144.34,385,153.41,385Zm0,11.34c-9.12,0-17.3-3.06-22.58-5.64l43.15.92A51.69,51.69,0,0,1,153.41,396.29Zm31.41,6.37a53.89,53.89,0,0,1-10.17-6.73,65.27,65.27,0,0,0,7.81-3.95c.78,0,1.57.06,2.36.06s1.42,0,2.14-.06a62.77,62.77,0,0,0,8,4A54.74,54.74,0,0,1,184.82,402.66ZM216,396.29a51.65,51.65,0,0,1-20.57-4.72l43.14-.92C233.3,393.23,225.12,396.29,216,396.29Zm22.55-5.7-36.81-.78a64.72,64.72,0,0,0,12.5-4.79c.59,0,1.17-.07,1.76-.07C225.06,385,233.25,388,238.55,390.59Zm-.68-9.15a42.91,42.91,0,0,1-6.37,1.76,57.43,57.43,0,0,0-7.67-1.84l33.3-12.93C253,372.67,246.39,378.34,237.87,381.44Zm19.26-13.08L222.2,380.24a65.49,65.49,0,0,0,10.15-8.8c.55-.22,1.08-.45,1.64-.66A49,49,0,0,1,250.75,368,60.26,60.26,0,0,1,257.13,368.36Z" transform="translate(-95.82 -240.94)"/><circle class="cls-1" cx="89" cy="85.9" r="60.94"/><circle class="cls-2" cx="89" cy="85.9" r="56.69"/><path class="cls-1" d="M212,336l2.43-11h-20l-2.79-9.48a15.87,15.87,0,0,0,10.22-14.94c0-7.66-6.42-12.58-14-12.58H167.73l-9.15,41.54h12.58L174,316.46h5l2.85,13.05-8.16,37h12.58L189.77,351h18.49l2.43-11H192.2l.87-4.11ZM176.45,305.5l1.43-6.54h7.48a3.19,3.19,0,0,1,3.48,3c0,2.36-2,3.55-4.73,3.55h-7.66Z" transform="translate(-95.82 -240.94)"/></g><g id="VEKTOR_texter" data-name="VEKTOR texter"><path d="M328.68,349.09,320.61,333h-6.33v16.12H301.89v-48h24.05c10.66,0,16.71,7.05,16.71,16,0,8.35-5.12,12.82-9.58,14.4l9.79,17.64ZM330,317c0-3.24-2.73-5.11-6-5.11h-9.79v10.29h9.79C327.31,322.16,330,320.36,330,317Z" transform="translate(-95.82 -240.94)"/><path d="M347.54,304.81a6.34,6.34,0,1,1,6.33,6.41A6.3,6.3,0,0,1,347.54,304.81Zm.79,44.28V314.32h11.09v34.77Z" transform="translate(-95.82 -240.94)"/><path d="M389,349.09l-7.63-12.31-3.32,4v8.35H366.93v-48H378v27.14l10.59-13.89H402l-12.82,15.84,13.47,18.93Z" transform="translate(-95.82 -240.94)"/><path d="M402.93,344.63l4.61-7.63a21.72,21.72,0,0,0,12.24,4.61c3.31,0,4.68-1.08,4.68-2.67,0-4.53-20.23-.07-20.23-14,0-6.12,5.26-11.45,14.9-11.45a24.45,24.45,0,0,1,14.55,4.61l-4.25,7.34a15.58,15.58,0,0,0-10.22-3.81c-2.6,0-4.4,1.08-4.4,2.52,0,4,20.24.07,20.24,14.33,0,6.62-5.84,11.52-15.84,11.52C413,350,406.61,347.87,402.93,344.63Z" transform="translate(-95.82 -240.94)"/><path d="M439.59,304.81a6.34,6.34,0,1,1,6.33,6.41A6.3,6.3,0,0,1,439.59,304.81Zm.79,44.28V314.32h11.09v34.77Z" transform="translate(-95.82 -240.94)"/><path d="M482.62,349.09v-4a13.3,13.3,0,0,1-10.3,4.9c-8.57,0-15.41-6.48-15.41-18.29,0-11.38,6.7-18.22,15.41-18.22a12.91,12.91,0,0,1,10.3,5V301.07h11v48Zm0-12.09V326.34a9.08,9.08,0,0,0-6.7-3.1c-4.39,0-7.63,3.24-7.63,8.43s3.24,8.5,7.63,8.5A9.14,9.14,0,0,0,482.62,337Z" transform="translate(-95.82 -240.94)"/><path d="M501.22,349.09V314.32h11.09v4.24a15.1,15.1,0,0,1,10.87-5.18V324a12.29,12.29,0,0,0-2.74-.29c-2.88,0-6.69,1.22-8.13,3.17v22.17Z" transform="translate(-95.82 -240.94)"/><path d="M524.83,331.67c0-9.79,7.13-18.22,18.94-18.22,12,0,19,8.43,19,18.22s-7,18.29-19,18.29C532,350,524.83,341.46,524.83,331.67Zm26.57,0c0-4.61-2.73-8.43-7.63-8.43s-7.49,3.82-7.49,8.43,2.67,8.5,7.49,8.5S551.4,336.35,551.4,331.67Z" transform="translate(-95.82 -240.94)"/><path d="M570.58,339.73V324h-5.76v-9.64h5.76v-9.51h11v9.51h7.06V324H581.6v12.68c0,2,1.15,3.53,3.1,3.53a4.3,4.3,0,0,0,2.8-.87l2.16,8.35c-1.36,1.3-4.1,2.31-8.2,2.31C574.4,350,570.58,346.43,570.58,339.73Z" transform="translate(-95.82 -240.94)"/><path d="M597,339.73V324h-5.77v-9.64H597v-9.51h11v9.51H615V324H608v12.68c0,2,1.15,3.53,3.1,3.53a4.33,4.33,0,0,0,2.81-.87l2.16,8.35c-1.37,1.3-4.11,2.31-8.21,2.31C600.77,350,597,346.43,597,339.73Z" transform="translate(-95.82 -240.94)"/><path d="M618.34,344.63,623,337a21.69,21.69,0,0,0,12.24,4.61c3.31,0,4.68-1.08,4.68-2.67,0-4.53-20.24-.07-20.24-14,0-6.12,5.26-11.45,14.91-11.45a24.44,24.44,0,0,1,14.54,4.61l-4.24,7.34a15.59,15.59,0,0,0-10.23-3.81c-2.59,0-4.39,1.08-4.39,2.52,0,4,20.23.07,20.23,14.33,0,6.62-5.83,11.52-15.84,11.52C628.42,350,622,347.87,618.34,344.63Z" transform="translate(-95.82 -240.94)"/><path d="M658.14,349.09V324h-5.76v-9.64h5.76v-1.73c0-7.35,5.18-12.24,12.46-12.24,3.74,0,7.63,1,10,3.45l-4.1,6.34a4.24,4.24,0,0,0-3.46-1.37,3.63,3.63,0,0,0-3.81,3.82v1.73h7V324h-7v25.13Z" transform="translate(-95.82 -240.94)"/><path d="M677.65,331.67c0-9.79,7.13-18.22,18.94-18.22s19,8.43,19,18.22-7.06,18.29-19,18.29S677.65,341.46,677.65,331.67Zm11.23-21.17a5.66,5.66,0,0,1,0-11.31,5.66,5.66,0,1,1,0,11.31Zm15.34,21.17c0-4.61-2.74-8.43-7.63-8.43s-7.49,3.82-7.49,8.43,2.66,8.5,7.49,8.5S704.22,336.35,704.22,331.67Zm.07-21.17a5.66,5.66,0,1,1,5.69-5.69A5.59,5.59,0,0,1,704.29,310.5Z" transform="translate(-95.82 -240.94)"/><path d="M720.63,349.09V314.32h11.09v4.24a15.14,15.14,0,0,1,10.88-5.18V324a12.36,12.36,0,0,0-2.74-.29c-2.88,0-6.7,1.22-8.14,3.17v22.17Z" transform="translate(-95.82 -240.94)"/><path d="M746.24,349.09v-48h11.09v17.35a12.82,12.82,0,0,1,10.3-5c8.64,0,15.34,6.84,15.34,18.22,0,11.81-6.77,18.29-15.34,18.29a13.3,13.3,0,0,1-10.3-4.9v4ZM764,340.17c4.39,0,7.7-3.24,7.7-8.5s-3.31-8.43-7.7-8.43a8.88,8.88,0,0,0-6.63,3.17v10.66A8.81,8.81,0,0,0,764,340.17Z" transform="translate(-95.82 -240.94)"/><path d="M811.79,349.09v-4.17a15.81,15.81,0,0,1-12,5c-7.92,0-11.45-4.47-11.45-10.87V314.32h11.09v20.23c0,4.18,2.16,5.62,5.76,5.62a8.28,8.28,0,0,0,6.62-3.39V314.32h11.09v34.77Z" transform="translate(-95.82 -240.94)"/><path d="M853.76,349.09V329c0-4.24-2.23-5.76-5.69-5.76a8.54,8.54,0,0,0-6.76,3.39v22.46H830.22V314.32h11.09v4.24a15.73,15.73,0,0,1,12-5.11c7.92,0,11.52,4.61,11.52,11v24.62Z" transform="translate(-95.82 -240.94)"/><path d="M895.84,349.09v-4a13.3,13.3,0,0,1-10.3,4.9c-8.57,0-15.41-6.48-15.41-18.29,0-11.38,6.7-18.22,15.41-18.22a12.91,12.91,0,0,1,10.3,5V301.07h11v48Zm0-12.09V326.34a9.08,9.08,0,0,0-6.7-3.1c-4.39,0-7.63,3.24-7.63,8.43s3.24,8.5,7.63,8.5A9.14,9.14,0,0,0,895.84,337Z" transform="translate(-95.82 -240.94)"/><path d="M912,331.67c0-10.08,7.64-18.22,18.51-18.22,10.3,0,17.78,7.56,17.78,19.37v2.38H923.56c.65,3.24,3.68,6.19,8.72,6.19,2.45,0,6.69-1.08,8.64-2.95l4.68,6.91c-3.46,3.1-9.22,4.61-14.55,4.61C920.32,350,912,343,912,331.67ZM930.55,322a6.87,6.87,0,0,0-7.13,6h14.33C937.46,325.55,935.66,322,930.55,322Z" transform="translate(-95.82 -240.94)"/><path d="M955.53,339.73V324h-5.76v-9.64h5.76v-9.51h11v9.51h7.05V324h-7.05v12.68c0,2,1.15,3.53,3.09,3.53a4.31,4.31,0,0,0,2.81-.87l2.16,8.35c-1.37,1.3-4.1,2.31-8.21,2.31C959.35,350,955.53,346.43,955.53,339.73Z" transform="translate(-95.82 -240.94)"/></g></svg>